<svg xmlns="http://www.w3.org/2000/svg" viewBox="0 0 512 512">
  <!-- Dark background -->
  <rect width="512" height="512" rx="120" fill="#0a0a0a"/>
  
  <!-- Outer glowing rings -->
  <circle cx="256" cy="256" r="190" fill="none" stroke="#5b72ff" stroke-width="12" opacity="0.8"/>
  <circle cx="256" cy="256" r="175" fill="none" stroke="#10B981" stroke-width="8" opacity="0.6"/>
  
  <!-- Shield Shape -->
  <path d="M256 120C213 148 180 156 160 156V245C160 305 200 358 256 392C312 358 352 305 352 245V156C332 156 299 148 256 120Z" fill="none" stroke="#5b72ff" stroke-width="16" stroke-linejoin="round"/>
  
  <!-- Tooth Icon inside Shield -->
  <path d="M226 200C210 200 196 215 196 235C196 260 216 280 226 310C231 325 236 330 241 330C246 330 248 322 251 315C253 310 256 310 258 310C261 315 263 322 268 330C273 330 278 325 283 310C293 280 313 260 313 235C313 215 299 200 283 200C271 200 262 210 256 218C250 210 241 200 226 200Z" fill="#10B981"/>
</svg>